<svg width="300" height="65" viewBox="0 0 300 65" fill="none" xmlns="http://www.w3.org/2000/svg">
<g clip-path="url(#clip0_819_841)">
<path d="M34.2729 35.0963L20.9518 51.861C19.1738 54.09 15.7729 54.062 14.0372 51.804L1.09714 35.0399C-0.116363 33.4594 -0.116363 31.258 1.09714 29.6776L14.0372 12.9133C15.7729 10.6555 19.1738 10.6273 20.9518 12.8569L34.2729 29.6211C35.5429 31.2298 35.5429 33.5017 34.2729 35.0963Z" fill="#45BAB9"/>
<path d="M56.371 29.6353L43.0501 12.871C41.2721 10.6414 37.8713 10.6696 36.1356 12.9275L31.5917 18.8119L40.1997 29.6353C41.4697 31.2299 41.4697 33.5018 40.1997 35.0964L31.5917 45.92L36.1356 51.804C37.8713 54.062 41.2721 54.09 43.0501 51.861L56.371 35.0964C57.641 33.5018 57.641 31.2299 56.371 29.6353Z" fill="#43B072"/>
<path d="M77.637 29.6353L64.316 12.871C62.538 10.6414 59.137 10.6696 57.401 12.9275L53.45 18.0499L62.665 29.6353C63.935 31.2299 63.935 33.5018 62.665 35.0964L53.45 46.682L57.401 51.804C59.137 54.062 62.538 54.09 64.316 51.861L77.637 35.0964C78.921 33.5018 78.921 31.2299 77.637 29.6353Z" fill="#DDDF4C"/>
<path d="M118.108 32.7539C118.108 35.6185 117.389 37.8763 115.949 39.4568C114.51 41.037 112.746 41.813 110.531 41.813C108.202 41.813 106.565 41.15 105.507 39.7673C104.434 38.3702 103.884 36.2818 103.884 33.5724V15.0442H94.232V34.3485C94.232 39.4568 95.417 43.422 97.746 46.103C100.102 48.813 103.475 50.181 107.779 50.181C110.46 50.181 112.845 49.575 114.863 48.361C116.387 47.458 117.643 46.301 118.631 44.904L119.167 49.377H127.817V15.0442H118.094V32.7539H118.108Z" fill="white"/>
<path d="M154.403 14.2539C151.679 14.2539 149.266 14.8607 147.248 16.0743C145.724 16.9774 144.468 18.1345 143.481 19.5315L142.944 15.0583H134.294V49.391H144.017V31.6814C144.017 28.8168 144.736 26.559 146.176 24.9785C147.615 23.3981 149.407 22.6219 151.665 22.6219C153.951 22.6219 155.574 23.2852 156.618 24.6681C157.691 26.0792 158.241 28.1677 158.241 30.863V49.363H167.964V30.0727C167.964 24.9503 166.764 20.9991 164.408 18.318C162.023 15.6227 158.65 14.2539 154.403 14.2539Z" fill="white"/>
<path d="M178.999 0.0720215C177.291 0.0720215 175.866 0.580024 174.765 1.59602C173.636 2.62622 173.072 3.95262 173.072 5.53312C173.072 7.12772 173.636 8.45422 174.765 9.49842C175.88 10.5285 177.305 11.0648 179.013 11.0648C180.72 11.0648 182.146 10.5426 183.26 9.49842C184.375 8.45422 184.954 7.11362 184.954 5.53312C184.954 3.93852 184.389 2.61212 183.26 1.59602C182.132 0.580024 180.706 0.0720215 178.999 0.0720215Z" fill="white"/>
<path d="M183.867 15.0442H174.145V49.377H183.867V15.0442Z" fill="white"/>
<path d="M219.442 16.6105C216.902 15.0441 213.995 14.2539 210.778 14.2539C207.871 14.2539 205.458 14.8466 203.609 16.0178C202.198 16.9068 200.984 17.9229 199.996 19.0518L199.206 15.0583H190.528V64.109H200.25V45.92C201.281 47.063 202.522 47.994 203.962 48.714C205.909 49.687 208.195 50.181 210.778 50.181C213.995 50.181 216.902 49.405 219.442 47.853C221.968 46.315 224 44.17 225.467 41.489C226.935 38.8076 227.683 35.7031 227.683 32.2882C227.683 28.8591 226.935 25.7546 225.467 23.0453C223.986 20.3359 221.968 18.1769 219.442 16.6105ZM215.307 38.9629C213.628 40.684 211.554 41.531 208.971 41.531C206.347 41.531 204.272 40.684 202.607 38.9346C200.956 37.2131 200.123 34.9411 200.123 32.2176C200.123 29.48 200.956 27.2222 202.607 25.5006C204.272 23.7508 206.347 22.9042 208.971 22.9042C211.554 22.9042 213.614 23.765 215.307 25.5289C216.972 27.2787 217.819 29.5506 217.819 32.2882C217.819 35.0117 216.972 37.2554 215.307 38.9629Z" fill="white"/>
<path d="M243.05 15.0442H233.327V49.377H243.05V15.0442Z" fill="white"/>
<path d="M238.196 0.0720215C236.488 0.0720215 235.063 0.580024 233.962 1.59602C232.834 2.62622 232.269 3.95262 232.269 5.53312C232.269 7.12772 232.834 8.45422 233.962 9.49842C235.077 10.5285 236.503 11.0648 238.21 11.0648C239.917 11.0648 241.343 10.5426 242.457 9.49842C243.572 8.45422 244.151 7.11362 244.151 5.53312C244.151 3.93852 243.586 2.61212 242.457 1.59602C241.314 0.580024 239.889 0.0720215 238.196 0.0720215Z" fill="white"/>
<path d="M259.433 0.0720215H249.711V49.377H259.433V0.0720215Z" fill="white"/>
<path d="M297.647 22.5373C296.193 19.9831 294.161 17.937 291.579 16.4694C289.011 15.0018 286.005 14.2539 282.661 14.2539C279.091 14.2539 275.944 15.03 273.305 16.5682C270.652 18.1063 268.563 20.2936 267.068 23.0453C265.586 25.797 264.824 28.972 264.824 32.4858C264.824 35.9571 265.586 39.0758 267.11 41.729C268.634 44.396 270.751 46.498 273.418 47.966C276.085 49.433 279.161 50.181 282.59 50.181C285.342 50.181 287.84 49.673 290.027 48.657C292.214 47.641 294.077 46.23 295.573 44.452C296.208 43.704 296.744 42.914 297.224 42.081L289.603 37.7775H289.18L289.025 38.1162C288.489 39.2592 287.67 40.205 286.584 40.924C285.497 41.644 284.142 41.997 282.52 41.997C280.361 41.997 278.498 41.305 276.988 39.9365C275.619 38.6947 274.787 36.9873 274.533 34.8565H299.651L299.693 34.3202C299.735 33.7417 299.778 33.1772 299.792 32.6269C299.806 32.0765 299.82 31.5685 299.82 31.0605C299.834 27.956 299.086 25.0773 297.647 22.5373ZM274.758 28.3511C275.238 26.4461 276.141 24.9926 277.454 24.019C278.949 22.9183 280.699 22.3538 282.661 22.3538C284.693 22.3538 286.4 22.9606 287.769 24.146C288.997 25.2184 289.702 26.6013 289.928 28.3511H274.758Z" fill="white"/>
</g>
<defs>
<clipPath id="clip0_819_841">
<rect width="300" height="65" fill="white"/>
</clipPath>
</defs>
</svg>
