<svg width="160" height="160" viewBox="0 0 160 160" fill="none" xmlns="http://www.w3.org/2000/svg">
<path d="M106.911 58.8771L102.145 53.9453L54.0139 100.462L58.7803 105.393L106.911 58.8771Z" fill="#16161A"/>
<path d="M104 56H147.2C149.851 56 152 58.1492 152 60.8V147.2C152 149.851 149.851 152 147.2 152H60.8C58.1492 152 56 149.851 56 147.2V104" fill="#16161A"/>
<path d="M104 56H147.2C149.851 56 152 58.1492 152 60.8V147.2C152 149.851 149.851 152 147.2 152H60.8C58.1492 152 56 149.851 56 147.2V104" stroke="#FCFCFC" stroke-width="8" stroke-linecap="round" stroke-linejoin="round"/>
<path d="M104 56V12.8C104 10.149 101.851 8 99.2 8H12.8C10.149 8 8 10.149 8 12.8V99.2C8 101.851 10.149 104 12.8 104H56" fill="#16161A"/>
<path d="M104 56V12.8C104 10.149 101.851 8 99.2 8H12.8C10.149 8 8 10.149 8 12.8V99.2C8 101.851 10.149 104 12.8 104H56" stroke="#FCFCFC" stroke-width="8" stroke-linecap="round" stroke-linejoin="round"/>
<path d="M40 80C37.7909 80 36 78.2092 36 76V32C36 29.7909 37.7909 28 40 28H55.0124C57.9204 28 60.6364 28.2924 63.1604 28.8773C65.7392 29.409 67.9616 30.3395 69.8272 31.6687C71.7476 32.9448 73.2564 34.6728 74.354 36.8528C75.4512 38.9796 76 41.6116 76 44.7484C76 47.7792 75.424 50.4112 74.2716 52.644C73.1744 54.8772 71.6652 56.7116 69.7448 58.1472C67.8244 59.5828 65.602 60.6464 63.078 61.3376C60.554 62.0288 57.8656 62.3744 55.0124 62.3744H52.0988C49.8896 62.3744 48.0988 64.1652 48.0988 66.3744V76C48.0988 78.2092 46.308 80 44.0988 80H40ZM48.0988 49.0428C48.0988 51.252 49.8896 53.0428 52.0988 53.0428H54.2716C60.856 53.0428 64.148 50.278 64.148 44.7484C64.148 42.0368 63.2976 40.1228 61.5968 39.0061C59.9508 37.8896 57.5088 37.3313 54.2716 37.3313H52.0988C49.8896 37.3313 48.0988 39.1222 48.0988 41.3312V49.0428Z" fill="#FCFCFC"/>
<path d="M88 132C85.7908 132 84 130.209 84 128V84C84 81.7908 85.7908 80 88 80H101.951C104.738 80 107.306 80.2128 109.656 80.638C112.06 81.0104 114.137 81.7016 115.885 82.7116C117.634 83.722 119 85.0512 119.984 86.6992C121.022 88.3476 121.541 90.4212 121.541 92.9204C121.541 94.09 121.35 95.2596 120.967 96.4296C120.639 97.5992 120.093 98.6892 119.328 99.6992C118.563 100.71 117.606 101.614 116.459 102.411C115.348 103.183 114.032 103.756 112.512 104.129C112.423 104.151 112.361 104.23 112.361 104.321C112.361 104.416 112.429 104.497 112.522 104.514C116.268 105.214 119.11 106.533 121.049 108.472C123.016 110.44 124 113.178 124 116.687C124 119.346 123.481 121.632 122.443 123.546C121.404 125.46 119.956 127.055 118.098 128.331C116.24 129.554 114.055 130.485 111.541 131.123C109.082 131.708 106.404 132 103.508 132H88ZM96.0492 96.8956C96.0492 99.1048 97.84 100.896 100.049 100.896H101.377C104.328 100.896 106.459 100.338 107.77 99.2208C109.082 98.1044 109.738 96.5356 109.738 94.5152C109.738 92.6012 109.055 91.2452 107.688 90.448C106.377 89.5972 104.3 89.1716 101.459 89.1716H100.049C97.84 89.1716 96.0492 90.9628 96.0492 93.1716V96.8956ZM96.0492 118.828C96.0492 121.037 97.84 122.828 100.049 122.828H102.524C108.973 122.828 112.197 120.489 112.197 115.81C112.197 113.524 111.404 111.875 109.82 110.865C108.29 109.855 105.858 109.35 102.524 109.35H100.049C97.84 109.35 96.0492 111.14 96.0492 113.35V118.828Z" fill="#FCFCFC"/>
</svg>
