<svg width="458" height="124" viewBox="0 0 458 124" fill="none" xmlns="http://www.w3.org/2000/svg">
<path fill-rule="evenodd" clip-rule="evenodd" d="M211.029 49.6C199.46 49.6 189.74 41.6964 186.984 31H158.528C152.46 31 147.281 35.3823 146.284 41.3615L145.263 47.4771C144.295 53.2836 141.354 58.3372 137.196 62C141.354 65.6628 144.295 70.7163 145.263 76.5229L146.284 82.6385C147.281 88.6177 152.46 93 158.528 93H162.157C164.913 82.3036 174.634 74.4 186.202 74.4C199.913 74.4 211.029 85.5033 211.029 99.2C211.029 112.897 199.913 124 186.202 124C174.634 124 164.913 116.096 162.157 105.4H158.528C146.392 105.4 136.035 96.6354 134.039 84.6771L133.019 78.5615C132.021 72.5823 126.843 68.2 120.774 68.2H110.939C108.183 78.8964 98.4625 86.8 86.8942 86.8C75.3259 86.8 65.6055 78.8964 62.8494 68.2H48.8717C46.1156 78.8964 36.3953 86.8 24.8269 86.8C11.1154 86.8 0 75.6967 0 62C0 48.3033 11.1154 37.2 24.8269 37.2C36.3953 37.2 46.1156 45.1036 48.8717 55.8H62.8494C65.6055 45.1036 75.3259 37.2 86.8942 37.2C98.4625 37.2 108.183 45.1036 110.939 55.8H120.774C126.843 55.8 132.021 51.4177 133.019 45.4385L134.039 39.3229C136.035 27.3646 146.392 18.6 158.528 18.6L186.984 18.6C189.74 7.9036 199.46 0 211.029 0C224.74 0 235.856 11.1033 235.856 24.8C235.856 38.4967 224.74 49.6 211.029 49.6ZM211.029 37.2C217.885 37.2 223.442 31.6483 223.442 24.8C223.442 17.9517 217.885 12.4 211.029 12.4C204.173 12.4 198.615 17.9517 198.615 24.8C198.615 31.6483 204.173 37.2 211.029 37.2ZM24.8269 74.4C31.6827 74.4 37.2404 68.8483 37.2404 62C37.2404 55.1517 31.6827 49.6 24.8269 49.6C17.9712 49.6 12.4135 55.1517 12.4135 62C12.4135 68.8483 17.9712 74.4 24.8269 74.4ZM99.3077 62C99.3077 68.8483 93.75 74.4 86.8942 74.4C80.0384 74.4 74.4807 68.8483 74.4807 62C74.4807 55.1517 80.0384 49.6 86.8942 49.6C93.75 49.6 99.3077 55.1517 99.3077 62ZM198.615 99.2C198.615 106.048 193.058 111.6 186.202 111.6C179.346 111.6 173.788 106.048 173.788 99.2C173.788 92.3517 179.346 86.8 186.202 86.8C193.058 86.8 198.615 92.3517 198.615 99.2Z" fill="#EA4B71"/>
<path fill-rule="evenodd" clip-rule="evenodd" d="M384.835 53.617V53.0261C389.166 50.8593 393.497 47.1168 393.497 39.7303C393.497 29.0937 384.737 22.692 372.629 22.692C360.226 22.692 351.367 29.4876 351.367 39.9273C351.367 47.0183 355.501 50.8593 360.029 53.0261V53.617C355.009 55.3897 349.004 60.7081 349.004 69.5719C349.004 80.307 357.864 87.792 372.531 87.792C387.198 87.792 395.762 80.307 395.762 69.5719C395.762 60.7081 389.855 55.4882 384.835 53.617ZM372.531 31.7528C377.452 31.7528 381.095 34.9044 381.095 40.2227C381.095 45.541 377.354 48.6926 372.531 48.6926C367.707 48.6926 363.671 45.541 363.671 40.2227C363.671 34.8059 367.51 31.7528 372.531 31.7528ZM372.531 78.3372C366.821 78.3372 362.195 74.6932 362.195 68.4885C362.195 62.8748 366.034 58.6398 372.432 58.6398C378.732 58.6398 382.571 62.7763 382.571 68.6855C382.571 74.6932 378.141 78.3372 372.531 78.3372Z" fill="white"/>
<path d="M410.947 86.8071H423.547V60.1171C423.547 51.3518 428.863 47.5108 434.867 47.5108C440.774 47.5108 445.4 51.4503 445.4 59.5262V86.8071H458V56.9655C458 44.0637 450.519 36.5787 438.805 36.5787C431.422 36.5787 427.288 39.5333 424.335 43.3743H423.547L422.464 37.5636H410.947V86.8071Z" fill="white"/>
<path d="M299.413 86.8071H286.813V37.5636H298.33L299.413 43.3743H300.2C303.153 39.5333 307.288 36.5787 314.67 36.5787C326.384 36.5787 333.865 44.0637 333.865 56.9655V86.8071H321.266V59.5262C321.266 51.4503 316.639 47.5108 310.733 47.5108C304.728 47.5108 299.413 51.3518 299.413 60.1171V86.8071Z" fill="white"/>
</svg>
